<?xml version="1.0" encoding="UTF-8"?>
<svg xmlns="http://www.w3.org/2000/svg" xmlns:xlink="http://www.w3.org/1999/xlink" version="1.1" width="57px" height="57px" viewBox="0 0 57 57"><defs><rect id="r0" width="1" height="1" fill="#000000"/></defs><rect x="0" y="0" width="57" height="57" fill="#fefefe"/><use x="4" y="4" xlink:href="#r0"/><use x="5" y="4" xlink:href="#r0"/><use x="6" y="4" xlink:href="#r0"/><use x="7" y="4" xlink:href="#r0"/><use x="8" y="4" xlink:href="#r0"/><use x="9" y="4" xlink:href="#r0"/><use x="10" y="4" xlink:href="#r0"/><use x="12" y="4" xlink:href="#r0"/><use x="16" y="4" xlink:href="#r0"/><use x="21" y="4" xlink:href="#r0"/><use x="24" y="4" xlink:href="#r0"/><use x="25" y="4" xlink:href="#r0"/><use x="29" y="4" xlink:href="#r0"/><use x="30" y="4" xlink:href="#r0"/><use x="31" y="4" xlink:href="#r0"/><use x="33" y="4" xlink:href="#r0"/><use x="34" y="4" xlink:href="#r0"/><use x="37" y="4" xlink:href="#r0"/><use x="44" y="4" xlink:href="#r0"/><use x="46" y="4" xlink:href="#r0"/><use x="47" y="4" xlink:href="#r0"/><use x="48" y="4" xlink:href="#r0"/><use x="49" y="4" xlink:href="#r0"/><use x="50" y="4" xlink:href="#r0"/><use x="51" y="4" xlink:href="#r0"/><use x="52" y="4" xlink:href="#r0"/><use x="4" y="5" xlink:href="#r0"/><use x="10" y="5" xlink:href="#r0"/><use x="12" y="5" xlink:href="#r0"/><use x="13" y="5" xlink:href="#r0"/><use x="14" y="5" xlink:href="#r0"/><use x="15" y="5" xlink:href="#r0"/><use x="20" y="5" xlink:href="#r0"/><use x="23" y="5" xlink:href="#r0"/><use x="26" y="5" xlink:href="#r0"/><use x="29" y="5" xlink:href="#r0"/><use x="32" y="5" xlink:href="#r0"/><use x="37" y="5" xlink:href="#r0"/><use x="38" y="5" xlink:href="#r0"/><use x="39" y="5" xlink:href="#r0"/><use x="42" y="5" xlink:href="#r0"/><use x="43" y="5" xlink:href="#r0"/><use x="44" y="5" xlink:href="#r0"/><use x="46" y="5" xlink:href="#r0"/><use x="52" y="5" xlink:href="#r0"/><use x="4" y="6" xlink:href="#r0"/><use x="6" y="6" xlink:href="#r0"/><use x="7" y="6" xlink:href="#r0"/><use x="8" y="6" xlink:href="#r0"/><use x="10" y="6" xlink:href="#r0"/><use x="12" y="6" xlink:href="#r0"/><use x="13" y="6" xlink:href="#r0"/><use x="18" y="6" xlink:href="#r0"/><use x="19" y="6" xlink:href="#r0"/><use x="20" y="6" xlink:href="#r0"/><use x="21" y="6" xlink:href="#r0"/><use x="22" y="6" xlink:href="#r0"/><use x="25" y="6" xlink:href="#r0"/><use x="27" y="6" xlink:href="#r0"/><use x="28" y="6" xlink:href="#r0"/><use x="30" y="6" xlink:href="#r0"/><use x="31" y="6" xlink:href="#r0"/><use x="33" y="6" xlink:href="#r0"/><use x="36" y="6" xlink:href="#r0"/><use x="39" y="6" xlink:href="#r0"/><use x="40" y="6" xlink:href="#r0"/><use x="43" y="6" xlink:href="#r0"/><use x="44" y="6" xlink:href="#r0"/><use x="46" y="6" xlink:href="#r0"/><use x="48" y="6" xlink:href="#r0"/><use x="49" y="6" xlink:href="#r0"/><use x="50" y="6" xlink:href="#r0"/><use x="52" y="6" xlink:href="#r0"/><use x="4" y="7" xlink:href="#r0"/><use x="6" y="7" xlink:href="#r0"/><use x="7" y="7" xlink:href="#r0"/><use x="8" y="7" xlink:href="#r0"/><use x="10" y="7" xlink:href="#r0"/><use x="12" y="7" xlink:href="#r0"/><use x="13" y="7" xlink:href="#r0"/><use x="14" y="7" xlink:href="#r0"/><use x="17" y="7" xlink:href="#r0"/><use x="18" y="7" xlink:href="#r0"/><use x="20" y="7" xlink:href="#r0"/><use x="21" y="7" xlink:href="#r0"/><use x="23" y="7" xlink:href="#r0"/><use x="24" y="7" xlink:href="#r0"/><use x="26" y="7" xlink:href="#r0"/><use x="32" y="7" xlink:href="#r0"/><use x="33" y="7" xlink:href="#r0"/><use x="34" y="7" xlink:href="#r0"/><use x="37" y="7" xlink:href="#r0"/><use x="43" y="7" xlink:href="#r0"/><use x="46" y="7" xlink:href="#r0"/><use x="48" y="7" xlink:href="#r0"/><use x="49" y="7" xlink:href="#r0"/><use x="50" y="7" xlink:href="#r0"/><use x="52" y="7" xlink:href="#r0"/><use x="4" y="8" xlink:href="#r0"/><use x="6" y="8" xlink:href="#r0"/><use x="7" y="8" xlink:href="#r0"/><use x="8" y="8" xlink:href="#r0"/><use x="10" y="8" xlink:href="#r0"/><use x="13" y="8" xlink:href="#r0"/><use x="16" y="8" xlink:href="#r0"/><use x="17" y="8" xlink:href="#r0"/><use x="18" y="8" xlink:href="#r0"/><use x="23" y="8" xlink:href="#r0"/><use x="24" y="8" xlink:href="#r0"/><use x="26" y="8" xlink:href="#r0"/><use x="27" y="8" xlink:href="#r0"/><use x="28" y="8" xlink:href="#r0"/><use x="29" y="8" xlink:href="#r0"/><use x="30" y="8" xlink:href="#r0"/><use x="31" y="8" xlink:href="#r0"/><use x="32" y="8" xlink:href="#r0"/><use x="33" y="8" xlink:href="#r0"/><use x="34" y="8" xlink:href="#r0"/><use x="35" y="8" xlink:href="#r0"/><use x="36" y="8" xlink:href="#r0"/><use x="37" y="8" xlink:href="#r0"/><use x="40" y="8" xlink:href="#r0"/><use x="46" y="8" xlink:href="#r0"/><use x="48" y="8" xlink:href="#r0"/><use x="49" y="8" xlink:href="#r0"/><use x="50" y="8" xlink:href="#r0"/><use x="52" y="8" xlink:href="#r0"/><use x="4" y="9" xlink:href="#r0"/><use x="10" y="9" xlink:href="#r0"/><use x="12" y="9" xlink:href="#r0"/><use x="13" y="9" xlink:href="#r0"/><use x="17" y="9" xlink:href="#r0"/><use x="19" y="9" xlink:href="#r0"/><use x="22" y="9" xlink:href="#r0"/><use x="23" y="9" xlink:href="#r0"/><use x="25" y="9" xlink:href="#r0"/><use x="26" y="9" xlink:href="#r0"/><use x="30" y="9" xlink:href="#r0"/><use x="33" y="9" xlink:href="#r0"/><use x="38" y="9" xlink:href="#r0"/><use x="39" y="9" xlink:href="#r0"/><use x="40" y="9" xlink:href="#r0"/><use x="42" y="9" xlink:href="#r0"/><use x="46" y="9" xlink:href="#r0"/><use x="52" y="9" xlink:href="#r0"/><use x="4" y="10" xlink:href="#r0"/><use x="5" y="10" xlink:href="#r0"/><use x="6" y="10" xlink:href="#r0"/><use x="7" y="10" xlink:href="#r0"/><use x="8" y="10" xlink:href="#r0"/><use x="9" y="10" xlink:href="#r0"/><use x="10" y="10" xlink:href="#r0"/><use x="12" y="10" xlink:href="#r0"/><use x="14" y="10" xlink:href="#r0"/><use x="16" y="10" xlink:href="#r0"/><use x="18" y="10" xlink:href="#r0"/><use x="20" y="10" xlink:href="#r0"/><use x="22" y="10" xlink:href="#r0"/><use x="24" y="10" xlink:href="#r0"/><use x="26" y="10" xlink:href="#r0"/><use x="28" y="10" xlink:href="#r0"/><use x="30" y="10" xlink:href="#r0"/><use x="32" y="10" xlink:href="#r0"/><use x="34" y="10" xlink:href="#r0"/><use x="36" y="10" xlink:href="#r0"/><use x="38" y="10" xlink:href="#r0"/><use x="40" y="10" xlink:href="#r0"/><use x="42" y="10" xlink:href="#r0"/><use x="44" y="10" xlink:href="#r0"/><use x="46" y="10" xlink:href="#r0"/><use x="47" y="10" xlink:href="#r0"/><use x="48" y="10" xlink:href="#r0"/><use x="49" y="10" xlink:href="#r0"/><use x="50" y="10" xlink:href="#r0"/><use x="51" y="10" xlink:href="#r0"/><use x="52" y="10" xlink:href="#r0"/><use x="13" y="11" xlink:href="#r0"/><use x="14" y="11" xlink:href="#r0"/><use x="16" y="11" xlink:href="#r0"/><use x="18" y="11" xlink:href="#r0"/><use x="19" y="11" xlink:href="#r0"/><use x="20" y="11" xlink:href="#r0"/><use x="22" y="11" xlink:href="#r0"/><use x="26" y="11" xlink:href="#r0"/><use x="30" y="11" xlink:href="#r0"/><use x="36" y="11" xlink:href="#r0"/><use x="38" y="11" xlink:href="#r0"/><use x="39" y="11" xlink:href="#r0"/><use x="40" y="11" xlink:href="#r0"/><use x="43" y="11" xlink:href="#r0"/><use x="44" y="11" xlink:href="#r0"/><use x="4" y="12" xlink:href="#r0"/><use x="5" y="12" xlink:href="#r0"/><use x="8" y="12" xlink:href="#r0"/><use x="9" y="12" xlink:href="#r0"/><use x="10" y="12" xlink:href="#r0"/><use x="13" y="12" xlink:href="#r0"/><use x="15" y="12" xlink:href="#r0"/><use x="17" y="12" xlink:href="#r0"/><use x="18" y="12" xlink:href="#r0"/><use x="20" y="12" xlink:href="#r0"/><use x="21" y="12" xlink:href="#r0"/><use x="22" y="12" xlink:href="#r0"/><use x="23" y="12" xlink:href="#r0"/><use x="26" y="12" xlink:href="#r0"/><use x="27" y="12" xlink:href="#r0"/><use x="28" y="12" xlink:href="#r0"/><use x="29" y="12" xlink:href="#r0"/><use x="30" y="12" xlink:href="#r0"/><use x="31" y="12" xlink:href="#r0"/><use x="34" y="12" xlink:href="#r0"/><use x="36" y="12" xlink:href="#r0"/><use x="37" y="12" xlink:href="#r0"/><use x="39" y="12" xlink:href="#r0"/><use x="40" y="12" xlink:href="#r0"/><use x="41" y="12" xlink:href="#r0"/><use x="44" y="12" xlink:href="#r0"/><use x="47" y="12" xlink:href="#r0"/><use x="49" y="12" xlink:href="#r0"/><use x="50" y="12" xlink:href="#r0"/><use x="51" y="12" xlink:href="#r0"/><use x="52" y="12" xlink:href="#r0"/><use x="6" y="13" xlink:href="#r0"/><use x="7" y="13" xlink:href="#r0"/><use x="8" y="13" xlink:href="#r0"/><use x="9" y="13" xlink:href="#r0"/><use x="12" y="13" xlink:href="#r0"/><use x="15" y="13" xlink:href="#r0"/><use x="17" y="13" xlink:href="#r0"/><use x="21" y="13" xlink:href="#r0"/><use x="23" y="13" xlink:href="#r0"/><use x="24" y="13" xlink:href="#r0"/><use x="25" y="13" xlink:href="#r0"/><use x="26" y="13" xlink:href="#r0"/><use x="30" y="13" xlink:href="#r0"/><use x="33" y="13" xlink:href="#r0"/><use x="34" y="13" xlink:href="#r0"/><use x="35" y="13" xlink:href="#r0"/><use x="37" y="13" xlink:href="#r0"/><use x="39" y="13" xlink:href="#r0"/><use x="40" y="13" xlink:href="#r0"/><use x="41" y="13" xlink:href="#r0"/><use x="42" y="13" xlink:href="#r0"/><use x="45" y="13" xlink:href="#r0"/><use x="46" y="13" xlink:href="#r0"/><use x="47" y="13" xlink:href="#r0"/><use x="48" y="13" xlink:href="#r0"/><use x="51" y="13" xlink:href="#r0"/><use x="5" y="14" xlink:href="#r0"/><use x="6" y="14" xlink:href="#r0"/><use x="10" y="14" xlink:href="#r0"/><use x="13" y="14" xlink:href="#r0"/><use x="14" y="14" xlink:href="#r0"/><use x="16" y="14" xlink:href="#r0"/><use x="19" y="14" xlink:href="#r0"/><use x="21" y="14" xlink:href="#r0"/><use x="27" y="14" xlink:href="#r0"/><use x="30" y="14" xlink:href="#r0"/><use x="32" y="14" xlink:href="#r0"/><use x="34" y="14" xlink:href="#r0"/><use x="37" y="14" xlink:href="#r0"/><use x="41" y="14" xlink:href="#r0"/><use x="42" y="14" xlink:href="#r0"/><use x="44" y="14" xlink:href="#r0"/><use x="45" y="14" xlink:href="#r0"/><use x="46" y="14" xlink:href="#r0"/><use x="49" y="14" xlink:href="#r0"/><use x="51" y="14" xlink:href="#r0"/><use x="4" y="15" xlink:href="#r0"/><use x="5" y="15" xlink:href="#r0"/><use x="6" y="15" xlink:href="#r0"/><use x="7" y="15" xlink:href="#r0"/><use x="11" y="15" xlink:href="#r0"/><use x="13" y="15" xlink:href="#r0"/><use x="15" y="15" xlink:href="#r0"/><use x="16" y="15" xlink:href="#r0"/><use x="17" y="15" xlink:href="#r0"/><use x="21" y="15" xlink:href="#r0"/><use x="22" y="15" xlink:href="#r0"/><use x="23" y="15" xlink:href="#r0"/><use x="24" y="15" xlink:href="#r0"/><use x="26" y="15" xlink:href="#r0"/><use x="27" y="15" xlink:href="#r0"/><use x="28" y="15" xlink:href="#r0"/><use x="31" y="15" xlink:href="#r0"/><use x="33" y="15" xlink:href="#r0"/><use x="36" y="15" xlink:href="#r0"/><use x="37" y="15" xlink:href="#r0"/><use x="38" y="15" xlink:href="#r0"/><use x="40" y="15" xlink:href="#r0"/><use x="44" y="15" xlink:href="#r0"/><use x="46" y="15" xlink:href="#r0"/><use x="48" y="15" xlink:href="#r0"/><use x="50" y="15" xlink:href="#r0"/><use x="52" y="15" xlink:href="#r0"/><use x="4" y="16" xlink:href="#r0"/><use x="10" y="16" xlink:href="#r0"/><use x="11" y="16" xlink:href="#r0"/><use x="12" y="16" xlink:href="#r0"/><use x="14" y="16" xlink:href="#r0"/><use x="15" y="16" xlink:href="#r0"/><use x="16" y="16" xlink:href="#r0"/><use x="17" y="16" xlink:href="#r0"/><use x="18" y="16" xlink:href="#r0"/><use x="22" y="16" xlink:href="#r0"/><use x="23" y="16" xlink:href="#r0"/><use x="26" y="16" xlink:href="#r0"/><use x="27" y="16" xlink:href="#r0"/><use x="28" y="16" xlink:href="#r0"/><use x="29" y="16" xlink:href="#r0"/><use x="31" y="16" xlink:href="#r0"/><use x="34" y="16" xlink:href="#r0"/><use x="35" y="16" xlink:href="#r0"/><use x="36" y="16" xlink:href="#r0"/><use x="37" y="16" xlink:href="#r0"/><use x="39" y="16" xlink:href="#r0"/><use x="40" y="16" xlink:href="#r0"/><use x="41" y="16" xlink:href="#r0"/><use x="42" y="16" xlink:href="#r0"/><use x="43" y="16" xlink:href="#r0"/><use x="44" y="16" xlink:href="#r0"/><use x="45" y="16" xlink:href="#r0"/><use x="48" y="16" xlink:href="#r0"/><use x="50" y="16" xlink:href="#r0"/><use x="52" y="16" xlink:href="#r0"/><use x="4" y="17" xlink:href="#r0"/><use x="5" y="17" xlink:href="#r0"/><use x="6" y="17" xlink:href="#r0"/><use x="7" y="17" xlink:href="#r0"/><use x="13" y="17" xlink:href="#r0"/><use x="18" y="17" xlink:href="#r0"/><use x="19" y="17" xlink:href="#r0"/><use x="20" y="17" xlink:href="#r0"/><use x="23" y="17" xlink:href="#r0"/><use x="24" y="17" xlink:href="#r0"/><use x="25" y="17" xlink:href="#r0"/><use x="26" y="17" xlink:href="#r0"/><use x="27" y="17" xlink:href="#r0"/><use x="28" y="17" xlink:href="#r0"/><use x="29" y="17" xlink:href="#r0"/><use x="30" y="17" xlink:href="#r0"/><use x="33" y="17" xlink:href="#r0"/><use x="34" y="17" xlink:href="#r0"/><use x="35" y="17" xlink:href="#r0"/><use x="37" y="17" xlink:href="#r0"/><use x="39" y="17" xlink:href="#r0"/><use x="41" y="17" xlink:href="#r0"/><use x="42" y="17" xlink:href="#r0"/><use x="46" y="17" xlink:href="#r0"/><use x="47" y="17" xlink:href="#r0"/><use x="49" y="17" xlink:href="#r0"/><use x="51" y="17" xlink:href="#r0"/><use x="4" y="18" xlink:href="#r0"/><use x="5" y="18" xlink:href="#r0"/><use x="6" y="18" xlink:href="#r0"/><use x="9" y="18" xlink:href="#r0"/><use x="10" y="18" xlink:href="#r0"/><use x="11" y="18" xlink:href="#r0"/><use x="14" y="18" xlink:href="#r0"/><use x="16" y="18" xlink:href="#r0"/><use x="19" y="18" xlink:href="#r0"/><use x="25" y="18" xlink:href="#r0"/><use x="27" y="18" xlink:href="#r0"/><use x="28" y="18" xlink:href="#r0"/><use x="29" y="18" xlink:href="#r0"/><use x="30" y="18" xlink:href="#r0"/><use x="32" y="18" xlink:href="#r0"/><use x="34" y="18" xlink:href="#r0"/><use x="37" y="18" xlink:href="#r0"/><use x="39" y="18" xlink:href="#r0"/><use x="41" y="18" xlink:href="#r0"/><use x="42" y="18" xlink:href="#r0"/><use x="43" y="18" xlink:href="#r0"/><use x="45" y="18" xlink:href="#r0"/><use x="46" y="18" xlink:href="#r0"/><use x="47" y="18" xlink:href="#r0"/><use x="48" y="18" xlink:href="#r0"/><use x="4" y="19" xlink:href="#r0"/><use x="5" y="19" xlink:href="#r0"/><use x="6" y="19" xlink:href="#r0"/><use x="7" y="19" xlink:href="#r0"/><use x="12" y="19" xlink:href="#r0"/><use x="13" y="19" xlink:href="#r0"/><use x="16" y="19" xlink:href="#r0"/><use x="18" y="19" xlink:href="#r0"/><use x="23" y="19" xlink:href="#r0"/><use x="26" y="19" xlink:href="#r0"/><use x="27" y="19" xlink:href="#r0"/><use x="28" y="19" xlink:href="#r0"/><use x="29" y="19" xlink:href="#r0"/><use x="30" y="19" xlink:href="#r0"/><use x="35" y="19" xlink:href="#r0"/><use x="36" y="19" xlink:href="#r0"/><use x="39" y="19" xlink:href="#r0"/><use x="40" y="19" xlink:href="#r0"/><use x="42" y="19" xlink:href="#r0"/><use x="44" y="19" xlink:href="#r0"/><use x="46" y="19" xlink:href="#r0"/><use x="47" y="19" xlink:href="#r0"/><use x="48" y="19" xlink:href="#r0"/><use x="49" y="19" xlink:href="#r0"/><use x="50" y="19" xlink:href="#r0"/><use x="51" y="19" xlink:href="#r0"/><use x="4" y="20" xlink:href="#r0"/><use x="6" y="20" xlink:href="#r0"/><use x="10" y="20" xlink:href="#r0"/><use x="11" y="20" xlink:href="#r0"/><use x="12" y="20" xlink:href="#r0"/><use x="14" y="20" xlink:href="#r0"/><use x="15" y="20" xlink:href="#r0"/><use x="18" y="20" xlink:href="#r0"/><use x="20" y="20" xlink:href="#r0"/><use x="21" y="20" xlink:href="#r0"/><use x="22" y="20" xlink:href="#r0"/><use x="23" y="20" xlink:href="#r0"/><use x="25" y="20" xlink:href="#r0"/><use x="26" y="20" xlink:href="#r0"/><use x="28" y="20" xlink:href="#r0"/><use x="29" y="20" xlink:href="#r0"/><use x="31" y="20" xlink:href="#r0"/><use x="33" y="20" xlink:href="#r0"/><use x="34" y="20" xlink:href="#r0"/><use x="36" y="20" xlink:href="#r0"/><use x="38" y="20" xlink:href="#r0"/><use x="39" y="20" xlink:href="#r0"/><use x="40" y="20" xlink:href="#r0"/><use x="41" y="20" xlink:href="#r0"/><use x="44" y="20" xlink:href="#r0"/><use x="46" y="20" xlink:href="#r0"/><use x="48" y="20" xlink:href="#r0"/><use x="49" y="20" xlink:href="#r0"/><use x="50" y="20" xlink:href="#r0"/><use x="52" y="20" xlink:href="#r0"/><use x="5" y="21" xlink:href="#r0"/><use x="11" y="21" xlink:href="#r0"/><use x="12" y="21" xlink:href="#r0"/><use x="13" y="21" xlink:href="#r0"/><use x="16" y="21" xlink:href="#r0"/><use x="18" y="21" xlink:href="#r0"/><use x="19" y="21" xlink:href="#r0"/><use x="21" y="21" xlink:href="#r0"/><use x="23" y="21" xlink:href="#r0"/><use x="24" y="21" xlink:href="#r0"/><use x="25" y="21" xlink:href="#r0"/><use x="26" y="21" xlink:href="#r0"/><use x="28" y="21" xlink:href="#r0"/><use x="30" y="21" xlink:href="#r0"/><use x="31" y="21" xlink:href="#r0"/><use x="33" y="21" xlink:href="#r0"/><use x="34" y="21" xlink:href="#r0"/><use x="35" y="21" xlink:href="#r0"/><use x="36" y="21" xlink:href="#r0"/><use x="37" y="21" xlink:href="#r0"/><use x="39" y="21" xlink:href="#r0"/><use x="41" y="21" xlink:href="#r0"/><use x="42" y="21" xlink:href="#r0"/><use x="43" y="21" xlink:href="#r0"/><use x="45" y="21" xlink:href="#r0"/><use x="46" y="21" xlink:href="#r0"/><use x="47" y="21" xlink:href="#r0"/><use x="48" y="21" xlink:href="#r0"/><use x="49" y="21" xlink:href="#r0"/><use x="50" y="21" xlink:href="#r0"/><use x="51" y="21" xlink:href="#r0"/><use x="5" y="22" xlink:href="#r0"/><use x="7" y="22" xlink:href="#r0"/><use x="9" y="22" xlink:href="#r0"/><use x="10" y="22" xlink:href="#r0"/><use x="14" y="22" xlink:href="#r0"/><use x="15" y="22" xlink:href="#r0"/><use x="17" y="22" xlink:href="#r0"/><use x="18" y="22" xlink:href="#r0"/><use x="20" y="22" xlink:href="#r0"/><use x="21" y="22" xlink:href="#r0"/><use x="24" y="22" xlink:href="#r0"/><use x="28" y="22" xlink:href="#r0"/><use x="30" y="22" xlink:href="#r0"/><use x="31" y="22" xlink:href="#r0"/><use x="33" y="22" xlink:href="#r0"/><use x="34" y="22" xlink:href="#r0"/><use x="39" y="22" xlink:href="#r0"/><use x="42" y="22" xlink:href="#r0"/><use x="44" y="22" xlink:href="#r0"/><use x="45" y="22" xlink:href="#r0"/><use x="46" y="22" xlink:href="#r0"/><use x="51" y="22" xlink:href="#r0"/><use x="5" y="23" xlink:href="#r0"/><use x="8" y="23" xlink:href="#r0"/><use x="9" y="23" xlink:href="#r0"/><use x="13" y="23" xlink:href="#r0"/><use x="14" y="23" xlink:href="#r0"/><use x="16" y="23" xlink:href="#r0"/><use x="18" y="23" xlink:href="#r0"/><use x="19" y="23" xlink:href="#r0"/><use x="21" y="23" xlink:href="#r0"/><use x="22" y="23" xlink:href="#r0"/><use x="26" y="23" xlink:href="#r0"/><use x="27" y="23" xlink:href="#r0"/><use x="28" y="23" xlink:href="#r0"/><use x="30" y="23" xlink:href="#r0"/><use x="33" y="23" xlink:href="#r0"/><use x="36" y="23" xlink:href="#r0"/><use x="39" y="23" xlink:href="#r0"/><use x="40" y="23" xlink:href="#r0"/><use x="41" y="23" xlink:href="#r0"/><use x="45" y="23" xlink:href="#r0"/><use x="48" y="23" xlink:href="#r0"/><use x="50" y="23" xlink:href="#r0"/><use x="51" y="23" xlink:href="#r0"/><use x="4" y="24" xlink:href="#r0"/><use x="6" y="24" xlink:href="#r0"/><use x="10" y="24" xlink:href="#r0"/><use x="11" y="24" xlink:href="#r0"/><use x="12" y="24" xlink:href="#r0"/><use x="15" y="24" xlink:href="#r0"/><use x="19" y="24" xlink:href="#r0"/><use x="21" y="24" xlink:href="#r0"/><use x="22" y="24" xlink:href="#r0"/><use x="23" y="24" xlink:href="#r0"/><use x="26" y="24" xlink:href="#r0"/><use x="27" y="24" xlink:href="#r0"/><use x="28" y="24" xlink:href="#r0"/><use x="29" y="24" xlink:href="#r0"/><use x="31" y="24" xlink:href="#r0"/><use x="35" y="24" xlink:href="#r0"/><use x="36" y="24" xlink:href="#r0"/><use x="37" y="24" xlink:href="#r0"/><use x="39" y="24" xlink:href="#r0"/><use x="40" y="24" xlink:href="#r0"/><use x="42" y="24" xlink:href="#r0"/><use x="43" y="24" xlink:href="#r0"/><use x="44" y="24" xlink:href="#r0"/><use x="48" y="24" xlink:href="#r0"/><use x="50" y="24" xlink:href="#r0"/><use x="5" y="25" xlink:href="#r0"/><use x="7" y="25" xlink:href="#r0"/><use x="12" y="25" xlink:href="#r0"/><use x="17" y="25" xlink:href="#r0"/><use x="18" y="25" xlink:href="#r0"/><use x="21" y="25" xlink:href="#r0"/><use x="24" y="25" xlink:href="#r0"/><use x="28" y="25" xlink:href="#r0"/><use x="29" y="25" xlink:href="#r0"/><use x="30" y="25" xlink:href="#r0"/><use x="31" y="25" xlink:href="#r0"/><use x="33" y="25" xlink:href="#r0"/><use x="34" y="25" xlink:href="#r0"/><use x="37" y="25" xlink:href="#r0"/><use x="39" y="25" xlink:href="#r0"/><use x="40" y="25" xlink:href="#r0"/><use x="41" y="25" xlink:href="#r0"/><use x="42" y="25" xlink:href="#r0"/><use x="46" y="25" xlink:href="#r0"/><use x="47" y="25" xlink:href="#r0"/><use x="48" y="25" xlink:href="#r0"/><use x="49" y="25" xlink:href="#r0"/><use x="51" y="25" xlink:href="#r0"/><use x="4" y="26" xlink:href="#r0"/><use x="5" y="26" xlink:href="#r0"/><use x="6" y="26" xlink:href="#r0"/><use x="8" y="26" xlink:href="#r0"/><use x="9" y="26" xlink:href="#r0"/><use x="10" y="26" xlink:href="#r0"/><use x="11" y="26" xlink:href="#r0"/><use x="12" y="26" xlink:href="#r0"/><use x="13" y="26" xlink:href="#r0"/><use x="20" y="26" xlink:href="#r0"/><use x="21" y="26" xlink:href="#r0"/><use x="23" y="26" xlink:href="#r0"/><use x="25" y="26" xlink:href="#r0"/><use x="26" y="26" xlink:href="#r0"/><use x="27" y="26" xlink:href="#r0"/><use x="28" y="26" xlink:href="#r0"/><use x="29" y="26" xlink:href="#r0"/><use x="30" y="26" xlink:href="#r0"/><use x="31" y="26" xlink:href="#r0"/><use x="32" y="26" xlink:href="#r0"/><use x="33" y="26" xlink:href="#r0"/><use x="34" y="26" xlink:href="#r0"/><use x="35" y="26" xlink:href="#r0"/><use x="37" y="26" xlink:href="#r0"/><use x="42" y="26" xlink:href="#r0"/><use x="44" y="26" xlink:href="#r0"/><use x="45" y="26" xlink:href="#r0"/><use x="46" y="26" xlink:href="#r0"/><use x="47" y="26" xlink:href="#r0"/><use x="48" y="26" xlink:href="#r0"/><use x="50" y="26" xlink:href="#r0"/><use x="4" y="27" xlink:href="#r0"/><use x="5" y="27" xlink:href="#r0"/><use x="8" y="27" xlink:href="#r0"/><use x="12" y="27" xlink:href="#r0"/><use x="13" y="27" xlink:href="#r0"/><use x="14" y="27" xlink:href="#r0"/><use x="19" y="27" xlink:href="#r0"/><use x="20" y="27" xlink:href="#r0"/><use x="21" y="27" xlink:href="#r0"/><use x="23" y="27" xlink:href="#r0"/><use x="25" y="27" xlink:href="#r0"/><use x="26" y="27" xlink:href="#r0"/><use x="30" y="27" xlink:href="#r0"/><use x="31" y="27" xlink:href="#r0"/><use x="33" y="27" xlink:href="#r0"/><use x="35" y="27" xlink:href="#r0"/><use x="36" y="27" xlink:href="#r0"/><use x="37" y="27" xlink:href="#r0"/><use x="43" y="27" xlink:href="#r0"/><use x="44" y="27" xlink:href="#r0"/><use x="48" y="27" xlink:href="#r0"/><use x="49" y="27" xlink:href="#r0"/><use x="50" y="27" xlink:href="#r0"/><use x="51" y="27" xlink:href="#r0"/><use x="52" y="27" xlink:href="#r0"/><use x="4" y="28" xlink:href="#r0"/><use x="6" y="28" xlink:href="#r0"/><use x="7" y="28" xlink:href="#r0"/><use x="8" y="28" xlink:href="#r0"/><use x="10" y="28" xlink:href="#r0"/><use x="12" y="28" xlink:href="#r0"/><use x="13" y="28" xlink:href="#r0"/><use x="15" y="28" xlink:href="#r0"/><use x="16" y="28" xlink:href="#r0"/><use x="18" y="28" xlink:href="#r0"/><use x="20" y="28" xlink:href="#r0"/><use x="21" y="28" xlink:href="#r0"/><use x="22" y="28" xlink:href="#r0"/><use x="23" y="28" xlink:href="#r0"/><use x="26" y="28" xlink:href="#r0"/><use x="28" y="28" xlink:href="#r0"/><use x="30" y="28" xlink:href="#r0"/><use x="31" y="28" xlink:href="#r0"/><use x="33" y="28" xlink:href="#r0"/><use x="36" y="28" xlink:href="#r0"/><use x="37" y="28" xlink:href="#r0"/><use x="39" y="28" xlink:href="#r0"/><use x="40" y="28" xlink:href="#r0"/><use x="41" y="28" xlink:href="#r0"/><use x="44" y="28" xlink:href="#r0"/><use x="46" y="28" xlink:href="#r0"/><use x="48" y="28" xlink:href="#r0"/><use x="50" y="28" xlink:href="#r0"/><use x="52" y="28" xlink:href="#r0"/><use x="7" y="29" xlink:href="#r0"/><use x="8" y="29" xlink:href="#r0"/><use x="12" y="29" xlink:href="#r0"/><use x="15" y="29" xlink:href="#r0"/><use x="17" y="29" xlink:href="#r0"/><use x="18" y="29" xlink:href="#r0"/><use x="19" y="29" xlink:href="#r0"/><use x="21" y="29" xlink:href="#r0"/><use x="23" y="29" xlink:href="#r0"/><use x="24" y="29" xlink:href="#r0"/><use x="25" y="29" xlink:href="#r0"/><use x="26" y="29" xlink:href="#r0"/><use x="30" y="29" xlink:href="#r0"/><use x="33" y="29" xlink:href="#r0"/><use x="34" y="29" xlink:href="#r0"/><use x="35" y="29" xlink:href="#r0"/><use x="37" y="29" xlink:href="#r0"/><use x="40" y="29" xlink:href="#r0"/><use x="42" y="29" xlink:href="#r0"/><use x="44" y="29" xlink:href="#r0"/><use x="48" y="29" xlink:href="#r0"/><use x="49" y="29" xlink:href="#r0"/><use x="51" y="29" xlink:href="#r0"/><use x="5" y="30" xlink:href="#r0"/><use x="6" y="30" xlink:href="#r0"/><use x="7" y="30" xlink:href="#r0"/><use x="8" y="30" xlink:href="#r0"/><use x="9" y="30" xlink:href="#r0"/><use x="10" y="30" xlink:href="#r0"/><use x="11" y="30" xlink:href="#r0"/><use x="12" y="30" xlink:href="#r0"/><use x="16" y="30" xlink:href="#r0"/><use x="19" y="30" xlink:href="#r0"/><use x="22" y="30" xlink:href="#r0"/><use x="26" y="30" xlink:href="#r0"/><use x="27" y="30" xlink:href="#r0"/><use x="28" y="30" xlink:href="#r0"/><use x="29" y="30" xlink:href="#r0"/><use x="30" y="30" xlink:href="#r0"/><use x="32" y="30" xlink:href="#r0"/><use x="34" y="30" xlink:href="#r0"/><use x="37" y="30" xlink:href="#r0"/><use x="39" y="30" xlink:href="#r0"/><use x="43" y="30" xlink:href="#r0"/><use x="44" y="30" xlink:href="#r0"/><use x="45" y="30" xlink:href="#r0"/><use x="46" y="30" xlink:href="#r0"/><use x="47" y="30" xlink:href="#r0"/><use x="48" y="30" xlink:href="#r0"/><use x="49" y="30" xlink:href="#r0"/><use x="50" y="30" xlink:href="#r0"/><use x="51" y="30" xlink:href="#r0"/><use x="7" y="31" xlink:href="#r0"/><use x="8" y="31" xlink:href="#r0"/><use x="9" y="31" xlink:href="#r0"/><use x="13" y="31" xlink:href="#r0"/><use x="14" y="31" xlink:href="#r0"/><use x="15" y="31" xlink:href="#r0"/><use x="17" y="31" xlink:href="#r0"/><use x="19" y="31" xlink:href="#r0"/><use x="20" y="31" xlink:href="#r0"/><use x="24" y="31" xlink:href="#r0"/><use x="27" y="31" xlink:href="#r0"/><use x="28" y="31" xlink:href="#r0"/><use x="30" y="31" xlink:href="#r0"/><use x="31" y="31" xlink:href="#r0"/><use x="34" y="31" xlink:href="#r0"/><use x="35" y="31" xlink:href="#r0"/><use x="36" y="31" xlink:href="#r0"/><use x="38" y="31" xlink:href="#r0"/><use x="40" y="31" xlink:href="#r0"/><use x="41" y="31" xlink:href="#r0"/><use x="42" y="31" xlink:href="#r0"/><use x="46" y="31" xlink:href="#r0"/><use x="47" y="31" xlink:href="#r0"/><use x="50" y="31" xlink:href="#r0"/><use x="6" y="32" xlink:href="#r0"/><use x="10" y="32" xlink:href="#r0"/><use x="11" y="32" xlink:href="#r0"/><use x="13" y="32" xlink:href="#r0"/><use x="14" y="32" xlink:href="#r0"/><use x="15" y="32" xlink:href="#r0"/><use x="17" y="32" xlink:href="#r0"/><use x="18" y="32" xlink:href="#r0"/><use x="22" y="32" xlink:href="#r0"/><use x="23" y="32" xlink:href="#r0"/><use x="25" y="32" xlink:href="#r0"/><use x="26" y="32" xlink:href="#r0"/><use x="31" y="32" xlink:href="#r0"/><use x="33" y="32" xlink:href="#r0"/><use x="36" y="32" xlink:href="#r0"/><use x="37" y="32" xlink:href="#r0"/><use x="39" y="32" xlink:href="#r0"/><use x="40" y="32" xlink:href="#r0"/><use x="41" y="32" xlink:href="#r0"/><use x="42" y="32" xlink:href="#r0"/><use x="44" y="32" xlink:href="#r0"/><use x="49" y="32" xlink:href="#r0"/><use x="50" y="32" xlink:href="#r0"/><use x="51" y="32" xlink:href="#r0"/><use x="5" y="33" xlink:href="#r0"/><use x="7" y="33" xlink:href="#r0"/><use x="12" y="33" xlink:href="#r0"/><use x="13" y="33" xlink:href="#r0"/><use x="15" y="33" xlink:href="#r0"/><use x="18" y="33" xlink:href="#r0"/><use x="19" y="33" xlink:href="#r0"/><use x="20" y="33" xlink:href="#r0"/><use x="22" y="33" xlink:href="#r0"/><use x="24" y="33" xlink:href="#r0"/><use x="26" y="33" xlink:href="#r0"/><use x="28" y="33" xlink:href="#r0"/><use x="32" y="33" xlink:href="#r0"/><use x="33" y="33" xlink:href="#r0"/><use x="34" y="33" xlink:href="#r0"/><use x="36" y="33" xlink:href="#r0"/><use x="40" y="33" xlink:href="#r0"/><use x="41" y="33" xlink:href="#r0"/><use x="42" y="33" xlink:href="#r0"/><use x="45" y="33" xlink:href="#r0"/><use x="46" y="33" xlink:href="#r0"/><use x="48" y="33" xlink:href="#r0"/><use x="6" y="34" xlink:href="#r0"/><use x="7" y="34" xlink:href="#r0"/><use x="8" y="34" xlink:href="#r0"/><use x="10" y="34" xlink:href="#r0"/><use x="13" y="34" xlink:href="#r0"/><use x="15" y="34" xlink:href="#r0"/><use x="18" y="34" xlink:href="#r0"/><use x="19" y="34" xlink:href="#r0"/><use x="21" y="34" xlink:href="#r0"/><use x="23" y="34" xlink:href="#r0"/><use x="24" y="34" xlink:href="#r0"/><use x="27" y="34" xlink:href="#r0"/><use x="28" y="34" xlink:href="#r0"/><use x="31" y="34" xlink:href="#r0"/><use x="32" y="34" xlink:href="#r0"/><use x="33" y="34" xlink:href="#r0"/><use x="34" y="34" xlink:href="#r0"/><use x="35" y="34" xlink:href="#r0"/><use x="37" y="34" xlink:href="#r0"/><use x="42" y="34" xlink:href="#r0"/><use x="43" y="34" xlink:href="#r0"/><use x="47" y="34" xlink:href="#r0"/><use x="49" y="34" xlink:href="#r0"/><use x="51" y="34" xlink:href="#r0"/><use x="4" y="35" xlink:href="#r0"/><use x="6" y="35" xlink:href="#r0"/><use x="8" y="35" xlink:href="#r0"/><use x="9" y="35" xlink:href="#r0"/><use x="12" y="35" xlink:href="#r0"/><use x="13" y="35" xlink:href="#r0"/><use x="14" y="35" xlink:href="#r0"/><use x="15" y="35" xlink:href="#r0"/><use x="17" y="35" xlink:href="#r0"/><use x="18" y="35" xlink:href="#r0"/><use x="21" y="35" xlink:href="#r0"/><use x="25" y="35" xlink:href="#r0"/><use x="26" y="35" xlink:href="#r0"/><use x="27" y="35" xlink:href="#r0"/><use x="30" y="35" xlink:href="#r0"/><use x="36" y="35" xlink:href="#r0"/><use x="38" y="35" xlink:href="#r0"/><use x="39" y="35" xlink:href="#r0"/><use x="40" y="35" xlink:href="#r0"/><use x="41" y="35" xlink:href="#r0"/><use x="44" y="35" xlink:href="#r0"/><use x="45" y="35" xlink:href="#r0"/><use x="46" y="35" xlink:href="#r0"/><use x="47" y="35" xlink:href="#r0"/><use x="49" y="35" xlink:href="#r0"/><use x="50" y="35" xlink:href="#r0"/><use x="52" y="35" xlink:href="#r0"/><use x="4" y="36" xlink:href="#r0"/><use x="5" y="36" xlink:href="#r0"/><use x="9" y="36" xlink:href="#r0"/><use x="10" y="36" xlink:href="#r0"/><use x="11" y="36" xlink:href="#r0"/><use x="14" y="36" xlink:href="#r0"/><use x="15" y="36" xlink:href="#r0"/><use x="16" y="36" xlink:href="#r0"/><use x="17" y="36" xlink:href="#r0"/><use x="18" y="36" xlink:href="#r0"/><use x="20" y="36" xlink:href="#r0"/><use x="21" y="36" xlink:href="#r0"/><use x="22" y="36" xlink:href="#r0"/><use x="26" y="36" xlink:href="#r0"/><use x="29" y="36" xlink:href="#r0"/><use x="30" y="36" xlink:href="#r0"/><use x="31" y="36" xlink:href="#r0"/><use x="34" y="36" xlink:href="#r0"/><use x="35" y="36" xlink:href="#r0"/><use x="36" y="36" xlink:href="#r0"/><use x="37" y="36" xlink:href="#r0"/><use x="40" y="36" xlink:href="#r0"/><use x="42" y="36" xlink:href="#r0"/><use x="44" y="36" xlink:href="#r0"/><use x="47" y="36" xlink:href="#r0"/><use x="50" y="36" xlink:href="#r0"/><use x="4" y="37" xlink:href="#r0"/><use x="6" y="37" xlink:href="#r0"/><use x="8" y="37" xlink:href="#r0"/><use x="13" y="37" xlink:href="#r0"/><use x="17" y="37" xlink:href="#r0"/><use x="19" y="37" xlink:href="#r0"/><use x="23" y="37" xlink:href="#r0"/><use x="24" y="37" xlink:href="#r0"/><use x="26" y="37" xlink:href="#r0"/><use x="27" y="37" xlink:href="#r0"/><use x="28" y="37" xlink:href="#r0"/><use x="29" y="37" xlink:href="#r0"/><use x="32" y="37" xlink:href="#r0"/><use x="33" y="37" xlink:href="#r0"/><use x="34" y="37" xlink:href="#r0"/><use x="35" y="37" xlink:href="#r0"/><use x="36" y="37" xlink:href="#r0"/><use x="37" y="37" xlink:href="#r0"/><use x="42" y="37" xlink:href="#r0"/><use x="43" y="37" xlink:href="#r0"/><use x="48" y="37" xlink:href="#r0"/><use x="49" y="37" xlink:href="#r0"/><use x="5" y="38" xlink:href="#r0"/><use x="6" y="38" xlink:href="#r0"/><use x="7" y="38" xlink:href="#r0"/><use x="10" y="38" xlink:href="#r0"/><use x="12" y="38" xlink:href="#r0"/><use x="13" y="38" xlink:href="#r0"/><use x="17" y="38" xlink:href="#r0"/><use x="18" y="38" xlink:href="#r0"/><use x="19" y="38" xlink:href="#r0"/><use x="22" y="38" xlink:href="#r0"/><use x="23" y="38" xlink:href="#r0"/><use x="27" y="38" xlink:href="#r0"/><use x="28" y="38" xlink:href="#r0"/><use x="34" y="38" xlink:href="#r0"/><use x="35" y="38" xlink:href="#r0"/><use x="36" y="38" xlink:href="#r0"/><use x="37" y="38" xlink:href="#r0"/><use x="40" y="38" xlink:href="#r0"/><use x="42" y="38" xlink:href="#r0"/><use x="43" y="38" xlink:href="#r0"/><use x="44" y="38" xlink:href="#r0"/><use x="45" y="38" xlink:href="#r0"/><use x="47" y="38" xlink:href="#r0"/><use x="50" y="38" xlink:href="#r0"/><use x="51" y="38" xlink:href="#r0"/><use x="4" y="39" xlink:href="#r0"/><use x="6" y="39" xlink:href="#r0"/><use x="7" y="39" xlink:href="#r0"/><use x="9" y="39" xlink:href="#r0"/><use x="11" y="39" xlink:href="#r0"/><use x="12" y="39" xlink:href="#r0"/><use x="13" y="39" xlink:href="#r0"/><use x="14" y="39" xlink:href="#r0"/><use x="18" y="39" xlink:href="#r0"/><use x="19" y="39" xlink:href="#r0"/><use x="20" y="39" xlink:href="#r0"/><use x="21" y="39" xlink:href="#r0"/><use x="22" y="39" xlink:href="#r0"/><use x="23" y="39" xlink:href="#r0"/><use x="27" y="39" xlink:href="#r0"/><use x="29" y="39" xlink:href="#r0"/><use x="30" y="39" xlink:href="#r0"/><use x="31" y="39" xlink:href="#r0"/><use x="36" y="39" xlink:href="#r0"/><use x="37" y="39" xlink:href="#r0"/><use x="38" y="39" xlink:href="#r0"/><use x="39" y="39" xlink:href="#r0"/><use x="40" y="39" xlink:href="#r0"/><use x="46" y="39" xlink:href="#r0"/><use x="48" y="39" xlink:href="#r0"/><use x="50" y="39" xlink:href="#r0"/><use x="51" y="39" xlink:href="#r0"/><use x="4" y="40" xlink:href="#r0"/><use x="9" y="40" xlink:href="#r0"/><use x="10" y="40" xlink:href="#r0"/><use x="11" y="40" xlink:href="#r0"/><use x="14" y="40" xlink:href="#r0"/><use x="15" y="40" xlink:href="#r0"/><use x="16" y="40" xlink:href="#r0"/><use x="19" y="40" xlink:href="#r0"/><use x="21" y="40" xlink:href="#r0"/><use x="25" y="40" xlink:href="#r0"/><use x="26" y="40" xlink:href="#r0"/><use x="29" y="40" xlink:href="#r0"/><use x="30" y="40" xlink:href="#r0"/><use x="31" y="40" xlink:href="#r0"/><use x="34" y="40" xlink:href="#r0"/><use x="36" y="40" xlink:href="#r0"/><use x="38" y="40" xlink:href="#r0"/><use x="39" y="40" xlink:href="#r0"/><use x="40" y="40" xlink:href="#r0"/><use x="41" y="40" xlink:href="#r0"/><use x="45" y="40" xlink:href="#r0"/><use x="46" y="40" xlink:href="#r0"/><use x="50" y="40" xlink:href="#r0"/><use x="52" y="40" xlink:href="#r0"/><use x="5" y="41" xlink:href="#r0"/><use x="9" y="41" xlink:href="#r0"/><use x="13" y="41" xlink:href="#r0"/><use x="14" y="41" xlink:href="#r0"/><use x="16" y="41" xlink:href="#r0"/><use x="17" y="41" xlink:href="#r0"/><use x="18" y="41" xlink:href="#r0"/><use x="22" y="41" xlink:href="#r0"/><use x="24" y="41" xlink:href="#r0"/><use x="26" y="41" xlink:href="#r0"/><use x="28" y="41" xlink:href="#r0"/><use x="29" y="41" xlink:href="#r0"/><use x="33" y="41" xlink:href="#r0"/><use x="34" y="41" xlink:href="#r0"/><use x="39" y="41" xlink:href="#r0"/><use x="42" y="41" xlink:href="#r0"/><use x="43" y="41" xlink:href="#r0"/><use x="44" y="41" xlink:href="#r0"/><use x="45" y="41" xlink:href="#r0"/><use x="46" y="41" xlink:href="#r0"/><use x="48" y="41" xlink:href="#r0"/><use x="49" y="41" xlink:href="#r0"/><use x="50" y="41" xlink:href="#r0"/><use x="51" y="41" xlink:href="#r0"/><use x="5" y="42" xlink:href="#r0"/><use x="9" y="42" xlink:href="#r0"/><use x="10" y="42" xlink:href="#r0"/><use x="12" y="42" xlink:href="#r0"/><use x="13" y="42" xlink:href="#r0"/><use x="17" y="42" xlink:href="#r0"/><use x="18" y="42" xlink:href="#r0"/><use x="20" y="42" xlink:href="#r0"/><use x="22" y="42" xlink:href="#r0"/><use x="23" y="42" xlink:href="#r0"/><use x="26" y="42" xlink:href="#r0"/><use x="27" y="42" xlink:href="#r0"/><use x="32" y="42" xlink:href="#r0"/><use x="34" y="42" xlink:href="#r0"/><use x="35" y="42" xlink:href="#r0"/><use x="40" y="42" xlink:href="#r0"/><use x="41" y="42" xlink:href="#r0"/><use x="42" y="42" xlink:href="#r0"/><use x="47" y="42" xlink:href="#r0"/><use x="48" y="42" xlink:href="#r0"/><use x="49" y="42" xlink:href="#r0"/><use x="50" y="42" xlink:href="#r0"/><use x="5" y="43" xlink:href="#r0"/><use x="6" y="43" xlink:href="#r0"/><use x="7" y="43" xlink:href="#r0"/><use x="11" y="43" xlink:href="#r0"/><use x="12" y="43" xlink:href="#r0"/><use x="15" y="43" xlink:href="#r0"/><use x="17" y="43" xlink:href="#r0"/><use x="19" y="43" xlink:href="#r0"/><use x="20" y="43" xlink:href="#r0"/><use x="21" y="43" xlink:href="#r0"/><use x="23" y="43" xlink:href="#r0"/><use x="25" y="43" xlink:href="#r0"/><use x="27" y="43" xlink:href="#r0"/><use x="29" y="43" xlink:href="#r0"/><use x="30" y="43" xlink:href="#r0"/><use x="31" y="43" xlink:href="#r0"/><use x="33" y="43" xlink:href="#r0"/><use x="36" y="43" xlink:href="#r0"/><use x="39" y="43" xlink:href="#r0"/><use x="40" y="43" xlink:href="#r0"/><use x="41" y="43" xlink:href="#r0"/><use x="44" y="43" xlink:href="#r0"/><use x="46" y="43" xlink:href="#r0"/><use x="49" y="43" xlink:href="#r0"/><use x="50" y="43" xlink:href="#r0"/><use x="51" y="43" xlink:href="#r0"/><use x="4" y="44" xlink:href="#r0"/><use x="5" y="44" xlink:href="#r0"/><use x="6" y="44" xlink:href="#r0"/><use x="10" y="44" xlink:href="#r0"/><use x="11" y="44" xlink:href="#r0"/><use x="13" y="44" xlink:href="#r0"/><use x="15" y="44" xlink:href="#r0"/><use x="17" y="44" xlink:href="#r0"/><use x="18" y="44" xlink:href="#r0"/><use x="19" y="44" xlink:href="#r0"/><use x="20" y="44" xlink:href="#r0"/><use x="21" y="44" xlink:href="#r0"/><use x="22" y="44" xlink:href="#r0"/><use x="25" y="44" xlink:href="#r0"/><use x="26" y="44" xlink:href="#r0"/><use x="27" y="44" xlink:href="#r0"/><use x="28" y="44" xlink:href="#r0"/><use x="29" y="44" xlink:href="#r0"/><use x="30" y="44" xlink:href="#r0"/><use x="31" y="44" xlink:href="#r0"/><use x="33" y="44" xlink:href="#r0"/><use x="34" y="44" xlink:href="#r0"/><use x="35" y="44" xlink:href="#r0"/><use x="36" y="44" xlink:href="#r0"/><use x="37" y="44" xlink:href="#r0"/><use x="39" y="44" xlink:href="#r0"/><use x="40" y="44" xlink:href="#r0"/><use x="41" y="44" xlink:href="#r0"/><use x="42" y="44" xlink:href="#r0"/><use x="44" y="44" xlink:href="#r0"/><use x="45" y="44" xlink:href="#r0"/><use x="46" y="44" xlink:href="#r0"/><use x="47" y="44" xlink:href="#r0"/><use x="48" y="44" xlink:href="#r0"/><use x="50" y="44" xlink:href="#r0"/><use x="52" y="44" xlink:href="#r0"/><use x="12" y="45" xlink:href="#r0"/><use x="13" y="45" xlink:href="#r0"/><use x="14" y="45" xlink:href="#r0"/><use x="16" y="45" xlink:href="#r0"/><use x="19" y="45" xlink:href="#r0"/><use x="23" y="45" xlink:href="#r0"/><use x="24" y="45" xlink:href="#r0"/><use x="26" y="45" xlink:href="#r0"/><use x="30" y="45" xlink:href="#r0"/><use x="31" y="45" xlink:href="#r0"/><use x="33" y="45" xlink:href="#r0"/><use x="34" y="45" xlink:href="#r0"/><use x="35" y="45" xlink:href="#r0"/><use x="37" y="45" xlink:href="#r0"/><use x="39" y="45" xlink:href="#r0"/><use x="40" y="45" xlink:href="#r0"/><use x="42" y="45" xlink:href="#r0"/><use x="44" y="45" xlink:href="#r0"/><use x="48" y="45" xlink:href="#r0"/><use x="51" y="45" xlink:href="#r0"/><use x="4" y="46" xlink:href="#r0"/><use x="5" y="46" xlink:href="#r0"/><use x="6" y="46" xlink:href="#r0"/><use x="7" y="46" xlink:href="#r0"/><use x="8" y="46" xlink:href="#r0"/><use x="9" y="46" xlink:href="#r0"/><use x="10" y="46" xlink:href="#r0"/><use x="13" y="46" xlink:href="#r0"/><use x="14" y="46" xlink:href="#r0"/><use x="20" y="46" xlink:href="#r0"/><use x="21" y="46" xlink:href="#r0"/><use x="25" y="46" xlink:href="#r0"/><use x="26" y="46" xlink:href="#r0"/><use x="28" y="46" xlink:href="#r0"/><use x="30" y="46" xlink:href="#r0"/><use x="31" y="46" xlink:href="#r0"/><use x="32" y="46" xlink:href="#r0"/><use x="34" y="46" xlink:href="#r0"/><use x="37" y="46" xlink:href="#r0"/><use x="39" y="46" xlink:href="#r0"/><use x="40" y="46" xlink:href="#r0"/><use x="41" y="46" xlink:href="#r0"/><use x="42" y="46" xlink:href="#r0"/><use x="44" y="46" xlink:href="#r0"/><use x="46" y="46" xlink:href="#r0"/><use x="48" y="46" xlink:href="#r0"/><use x="51" y="46" xlink:href="#r0"/><use x="4" y="47" xlink:href="#r0"/><use x="10" y="47" xlink:href="#r0"/><use x="12" y="47" xlink:href="#r0"/><use x="13" y="47" xlink:href="#r0"/><use x="17" y="47" xlink:href="#r0"/><use x="20" y="47" xlink:href="#r0"/><use x="24" y="47" xlink:href="#r0"/><use x="25" y="47" xlink:href="#r0"/><use x="26" y="47" xlink:href="#r0"/><use x="30" y="47" xlink:href="#r0"/><use x="35" y="47" xlink:href="#r0"/><use x="36" y="47" xlink:href="#r0"/><use x="37" y="47" xlink:href="#r0"/><use x="39" y="47" xlink:href="#r0"/><use x="40" y="47" xlink:href="#r0"/><use x="43" y="47" xlink:href="#r0"/><use x="44" y="47" xlink:href="#r0"/><use x="48" y="47" xlink:href="#r0"/><use x="50" y="47" xlink:href="#r0"/><use x="51" y="47" xlink:href="#r0"/><use x="52" y="47" xlink:href="#r0"/><use x="4" y="48" xlink:href="#r0"/><use x="6" y="48" xlink:href="#r0"/><use x="7" y="48" xlink:href="#r0"/><use x="8" y="48" xlink:href="#r0"/><use x="10" y="48" xlink:href="#r0"/><use x="12" y="48" xlink:href="#r0"/><use x="13" y="48" xlink:href="#r0"/><use x="16" y="48" xlink:href="#r0"/><use x="17" y="48" xlink:href="#r0"/><use x="18" y="48" xlink:href="#r0"/><use x="22" y="48" xlink:href="#r0"/><use x="25" y="48" xlink:href="#r0"/><use x="26" y="48" xlink:href="#r0"/><use x="27" y="48" xlink:href="#r0"/><use x="28" y="48" xlink:href="#r0"/><use x="29" y="48" xlink:href="#r0"/><use x="30" y="48" xlink:href="#r0"/><use x="31" y="48" xlink:href="#r0"/><use x="33" y="48" xlink:href="#r0"/><use x="34" y="48" xlink:href="#r0"/><use x="36" y="48" xlink:href="#r0"/><use x="38" y="48" xlink:href="#r0"/><use x="39" y="48" xlink:href="#r0"/><use x="40" y="48" xlink:href="#r0"/><use x="41" y="48" xlink:href="#r0"/><use x="42" y="48" xlink:href="#r0"/><use x="44" y="48" xlink:href="#r0"/><use x="45" y="48" xlink:href="#r0"/><use x="46" y="48" xlink:href="#r0"/><use x="47" y="48" xlink:href="#r0"/><use x="48" y="48" xlink:href="#r0"/><use x="49" y="48" xlink:href="#r0"/><use x="50" y="48" xlink:href="#r0"/><use x="52" y="48" xlink:href="#r0"/><use x="4" y="49" xlink:href="#r0"/><use x="6" y="49" xlink:href="#r0"/><use x="7" y="49" xlink:href="#r0"/><use x="8" y="49" xlink:href="#r0"/><use x="10" y="49" xlink:href="#r0"/><use x="14" y="49" xlink:href="#r0"/><use x="15" y="49" xlink:href="#r0"/><use x="18" y="49" xlink:href="#r0"/><use x="19" y="49" xlink:href="#r0"/><use x="20" y="49" xlink:href="#r0"/><use x="21" y="49" xlink:href="#r0"/><use x="22" y="49" xlink:href="#r0"/><use x="24" y="49" xlink:href="#r0"/><use x="25" y="49" xlink:href="#r0"/><use x="26" y="49" xlink:href="#r0"/><use x="29" y="49" xlink:href="#r0"/><use x="30" y="49" xlink:href="#r0"/><use x="31" y="49" xlink:href="#r0"/><use x="32" y="49" xlink:href="#r0"/><use x="33" y="49" xlink:href="#r0"/><use x="34" y="49" xlink:href="#r0"/><use x="35" y="49" xlink:href="#r0"/><use x="42" y="49" xlink:href="#r0"/><use x="44" y="49" xlink:href="#r0"/><use x="45" y="49" xlink:href="#r0"/><use x="46" y="49" xlink:href="#r0"/><use x="47" y="49" xlink:href="#r0"/><use x="51" y="49" xlink:href="#r0"/><use x="4" y="50" xlink:href="#r0"/><use x="6" y="50" xlink:href="#r0"/><use x="7" y="50" xlink:href="#r0"/><use x="8" y="50" xlink:href="#r0"/><use x="10" y="50" xlink:href="#r0"/><use x="13" y="50" xlink:href="#r0"/><use x="15" y="50" xlink:href="#r0"/><use x="16" y="50" xlink:href="#r0"/><use x="18" y="50" xlink:href="#r0"/><use x="19" y="50" xlink:href="#r0"/><use x="21" y="50" xlink:href="#r0"/><use x="22" y="50" xlink:href="#r0"/><use x="23" y="50" xlink:href="#r0"/><use x="24" y="50" xlink:href="#r0"/><use x="25" y="50" xlink:href="#r0"/><use x="27" y="50" xlink:href="#r0"/><use x="30" y="50" xlink:href="#r0"/><use x="31" y="50" xlink:href="#r0"/><use x="32" y="50" xlink:href="#r0"/><use x="33" y="50" xlink:href="#r0"/><use x="34" y="50" xlink:href="#r0"/><use x="37" y="50" xlink:href="#r0"/><use x="39" y="50" xlink:href="#r0"/><use x="41" y="50" xlink:href="#r0"/><use x="42" y="50" xlink:href="#r0"/><use x="44" y="50" xlink:href="#r0"/><use x="45" y="50" xlink:href="#r0"/><use x="46" y="50" xlink:href="#r0"/><use x="47" y="50" xlink:href="#r0"/><use x="49" y="50" xlink:href="#r0"/><use x="51" y="50" xlink:href="#r0"/><use x="52" y="50" xlink:href="#r0"/><use x="4" y="51" xlink:href="#r0"/><use x="10" y="51" xlink:href="#r0"/><use x="12" y="51" xlink:href="#r0"/><use x="16" y="51" xlink:href="#r0"/><use x="25" y="51" xlink:href="#r0"/><use x="26" y="51" xlink:href="#r0"/><use x="27" y="51" xlink:href="#r0"/><use x="28" y="51" xlink:href="#r0"/><use x="31" y="51" xlink:href="#r0"/><use x="36" y="51" xlink:href="#r0"/><use x="38" y="51" xlink:href="#r0"/><use x="39" y="51" xlink:href="#r0"/><use x="40" y="51" xlink:href="#r0"/><use x="41" y="51" xlink:href="#r0"/><use x="43" y="51" xlink:href="#r0"/><use x="45" y="51" xlink:href="#r0"/><use x="50" y="51" xlink:href="#r0"/><use x="51" y="51" xlink:href="#r0"/><use x="4" y="52" xlink:href="#r0"/><use x="5" y="52" xlink:href="#r0"/><use x="6" y="52" xlink:href="#r0"/><use x="7" y="52" xlink:href="#r0"/><use x="8" y="52" xlink:href="#r0"/><use x="9" y="52" xlink:href="#r0"/><use x="10" y="52" xlink:href="#r0"/><use x="12" y="52" xlink:href="#r0"/><use x="13" y="52" xlink:href="#r0"/><use x="15" y="52" xlink:href="#r0"/><use x="17" y="52" xlink:href="#r0"/><use x="18" y="52" xlink:href="#r0"/><use x="20" y="52" xlink:href="#r0"/><use x="21" y="52" xlink:href="#r0"/><use x="22" y="52" xlink:href="#r0"/><use x="31" y="52" xlink:href="#r0"/><use x="33" y="52" xlink:href="#r0"/><use x="34" y="52" xlink:href="#r0"/><use x="35" y="52" xlink:href="#r0"/><use x="36" y="52" xlink:href="#r0"/><use x="37" y="52" xlink:href="#r0"/><use x="39" y="52" xlink:href="#r0"/><use x="40" y="52" xlink:href="#r0"/><use x="45" y="52" xlink:href="#r0"/><use x="48" y="52" xlink:href="#r0"/><use x="49" y="52" xlink:href="#r0"/><use x="50" y="52" xlink:href="#r0"/><use x="51" y="52" xlink:href="#r0"/><use x="52" y="52" xlink:href="#r0"/></svg>
